<?xml version="1.0" encoding="utf-8"?>
<svg viewBox="-2 -1 1924 456" width="1924" height="456" xmlns="http://www.w3.org/2000/svg">
  <path style="fill: rgb(151, 197, 213); stroke: rgb(32, 35, 38); stroke-width: 0;" id="path11" d="M 8.202 114.206 L 62.592 114.206 C 65.314 114.206 70.744 116.925 70.744 122.367 L 70.744 168.588 C 70.744 174.03 65.314 176.749 62.592 176.749 L 8.202 176.749 C 2.76 176.749 0.041 174.03 0.041 168.588 L 0.041 122.367 C 0.041 116.925 2.76 114.206 8.202 114.206 Z"/>
  <path style="fill: rgb(151, 197, 213); stroke: rgb(32, 35, 38); stroke-width: 0;" id="path13" d="M 89.785 114.206 L 144.175 114.206 C 149.616 114.206 152.335 116.925 152.335 122.367 L 152.335 168.588 C 152.335 174.03 149.616 176.749 144.175 176.749 L 89.785 176.749 C 84.351 176.749 81.632 174.03 81.632 168.588 L 81.632 122.367 C 81.632 116.925 84.351 114.206 89.785 114.206 Z"/>
  <path style="fill: rgb(151, 197, 213); stroke: rgb(32, 35, 38); stroke-width: 0;" id="path15" d="M 168.649 114.206 L 223.039 114.206 C 228.48 114.206 231.199 116.925 231.199 122.367 L 231.199 168.588 C 231.199 174.03 228.48 176.749 223.039 176.749 L 168.649 176.749 C 165.93 176.749 163.207 174.03 163.207 168.588 L 163.207 122.367 C 163.207 116.925 165.93 114.206 168.649 114.206 Z"/>
  <path style="fill: rgb(151, 197, 213); stroke: rgb(32, 35, 38); stroke-width: 0;" id="path17" d="M 250.239 114.206 L 304.629 114.206 C 310.071 114.206 312.79 116.925 312.79 122.367 L 312.79 168.588 C 312.79 174.03 310.071 176.749 304.629 176.749 L 250.239 176.749 C 244.798 176.749 242.079 174.03 242.079 168.588 L 242.079 122.367 C 242.079 116.925 244.798 114.206 250.239 114.206 Z"/>
  <path style="fill: rgb(151, 197, 213); stroke: rgb(32, 35, 38); stroke-width: 0;" id="path19" d="M 331.83 114.206 L 386.216 114.206 C 391.662 114.206 394.373 116.925 394.373 122.367 L 394.373 168.588 C 394.373 174.03 391.662 176.749 386.216 176.749 L 331.83 176.749 C 329.107 176.749 323.666 174.03 323.666 168.588 L 323.666 122.367 C 323.666 116.925 329.107 114.206 331.83 114.206 Z"/>
  <path style="fill: rgb(151, 197, 213); stroke: rgb(32, 35, 38); stroke-width: 0;" id="path21" d="M 413.405 114.206 L 465.084 114.206 C 470.518 114.206 473.237 116.925 473.237 122.367 L 473.237 168.588 C 473.237 174.03 470.518 176.749 465.084 176.749 L 413.405 176.749 C 410.694 176.749 405.252 174.03 405.252 168.588 L 405.252 122.367 C 405.252 116.925 410.694 114.206 413.405 114.206 Z"/>
  <path style="fill: rgb(151, 197, 213); stroke: rgb(32, 35, 38); stroke-width: 0;" id="path23" d="M 492.277 114.206 L 546.671 114.206 C 552.109 114.206 554.828 116.925 554.828 122.367 L 554.828 168.588 C 554.828 174.03 552.109 176.749 546.671 176.749 L 492.277 176.749 C 489.558 176.749 484.124 174.03 484.124 168.588 L 484.124 122.367 C 484.124 116.925 489.558 114.206 492.277 114.206 Z"/>
  <path style="fill: rgb(151, 197, 213); stroke: rgb(32, 35, 38); stroke-width: 0;" id="path25" d="M 573.864 114.206 L 628.254 114.206 C 633.696 114.206 636.414 116.925 636.414 122.367 L 636.414 168.588 C 636.414 174.03 633.696 176.749 628.254 176.749 L 573.864 176.749 C 571.141 176.749 565.707 174.03 565.707 168.588 L 565.707 122.367 C 565.707 116.925 571.141 114.206 573.864 114.206 Z"/>
  <path style="fill: rgb(151, 197, 213); stroke: rgb(32, 35, 38); stroke-width: 0;" id="path27" d="M 655.451 114.206 L 707.122 114.206 C 712.563 114.206 715.282 116.925 715.282 122.367 L 715.282 168.588 C 715.282 174.03 712.563 176.749 707.122 176.749 L 655.451 176.749 C 652.732 176.749 647.29 174.03 647.29 168.588 L 647.29 122.367 C 647.29 116.925 652.732 114.206 655.451 114.206 Z"/>
  <path style="fill: rgb(151, 197, 213); stroke: rgb(32, 35, 38); stroke-width: 0;" id="path29" d="M 734.322 114.206 L 788.709 114.206 C 794.154 114.206 796.865 116.925 796.865 122.367 L 796.865 168.588 C 796.865 174.03 794.154 176.749 788.709 176.749 L 734.322 176.749 C 731.6 176.749 726.158 174.03 726.158 168.588 L 726.158 122.367 C 726.158 116.925 731.6 114.206 734.322 114.206 Z"/>
  <path style="fill: rgb(151, 197, 213); stroke: rgb(32, 35, 38); stroke-width: 0;" id="path31" d="M 815.902 114.206 L 870.299 114.206 C 875.729 114.206 878.452 116.925 878.452 122.367 L 878.452 168.588 C 878.452 174.03 875.729 176.749 870.299 176.749 L 815.902 176.749 C 813.187 176.749 807.745 174.03 807.745 168.588 L 807.745 122.367 C 807.745 116.925 813.187 114.206 815.902 114.206 Z"/>
  <path style="fill: rgb(151, 197, 213); stroke: rgb(32, 35, 38); stroke-width: 0;" id="path33" d="M 897.488 114.206 L 951.878 114.206 C 954.601 114.206 957.32 116.925 957.32 122.367 L 957.32 168.588 C 957.32 174.03 954.601 176.749 951.878 176.749 L 897.488 176.749 C 894.77 176.749 889.336 174.03 889.336 168.588 L 889.336 122.367 C 889.336 116.925 894.77 114.206 897.488 114.206 Z"/>
  <path style="fill: rgb(151, 197, 213); stroke: rgb(32, 35, 38); stroke-width: 0;" id="path35" d="M 976.356 114.206 L 1030.746 114.206 C 1036.188 114.206 1038.907 116.925 1038.907 122.367 L 1038.907 168.588 C 1038.907 174.03 1036.188 176.749 1030.746 176.749 L 976.356 176.749 C 973.634 176.749 970.915 174.03 970.915 168.588 L 970.915 122.367 C 970.915 116.925 973.634 114.206 976.356 114.206 Z"/>
  <path style="fill: rgb(151, 197, 213); stroke: rgb(32, 35, 38); stroke-width: 0;" id="path37" d="M 1057.943 114.206 L 1112.337 114.206 C 1117.775 114.206 1120.498 116.925 1120.498 122.367 L 1120.498 168.588 C 1120.498 174.03 1117.775 176.749 1112.337 176.749 L 1057.943 176.749 C 1055.224 176.749 1052.505 174.03 1052.505 168.588 L 1052.505 122.367 C 1052.505 116.925 1055.224 114.206 1057.943 114.206 Z"/>
  <path style="fill: rgb(151, 197, 213); stroke: rgb(32, 35, 38); stroke-width: 0;" id="path41" d="M 138.737 182.191 L 190.408 182.191 C 195.849 182.191 198.568 184.902 198.568 190.344 L 198.568 239.296 C 198.568 242.007 195.849 247.449 190.408 247.449 L 138.737 247.449 C 136.018 247.449 130.576 242.007 130.576 239.296 L 130.576 190.344 C 130.576 184.902 136.018 182.191 138.737 182.191 Z"/>
  <path style="fill: rgb(151, 197, 213); stroke: rgb(32, 35, 38); stroke-width: 0;" id="path43" d="M 217.608 182.191 L 271.998 182.191 C 277.44 182.191 280.151 184.902 280.151 190.344 L 280.151 239.296 C 280.151 242.007 277.44 247.449 271.998 247.449 L 217.608 247.449 C 214.886 247.449 209.448 242.007 209.448 239.296 L 209.448 190.344 C 209.448 184.902 214.886 182.191 217.608 182.191 Z"/>
  <path style="fill: rgb(151, 197, 213); stroke: rgb(32, 35, 38); stroke-width: 0;" id="path45" d="M 299.188 182.191 L 353.585 182.191 C 359.019 182.191 361.742 184.902 361.742 190.344 L 361.742 239.296 C 361.742 242.007 359.019 247.449 353.585 247.449 L 299.188 247.449 C 296.476 247.449 291.031 242.007 291.031 239.296 L 291.031 190.344 C 291.031 184.902 296.476 182.191 299.188 182.191 Z"/>
  <path style="fill: rgb(151, 197, 213); stroke: rgb(32, 35, 38); stroke-width: 0;" id="path47" d="M 380.774 182.191 L 432.445 182.191 C 437.887 182.191 440.606 184.902 440.606 190.344 L 440.606 239.296 C 440.606 242.007 437.887 247.449 432.445 247.449 L 380.774 247.449 C 378.056 247.449 372.622 242.007 372.622 239.296 L 372.622 190.344 C 372.622 184.902 378.056 182.191 380.774 182.191 Z"/>
  <path style="fill: rgb(151, 197, 213); stroke: rgb(32, 35, 38); stroke-width: 0;" id="path49" d="M 459.646 182.191 L 514.036 182.191 C 519.474 182.191 522.197 184.902 522.197 190.344 L 522.197 239.296 C 522.197 242.007 519.474 247.449 514.036 247.449 L 459.646 247.449 C 456.923 247.449 454.204 242.007 454.204 239.296 L 454.204 190.344 C 454.204 184.902 456.923 182.191 459.646 182.191 Z"/>
  <path style="fill: rgb(151, 197, 213); stroke: rgb(32, 35, 38); stroke-width: 0;" id="path51" d="M 541.229 182.191 L 595.623 182.191 C 601.061 182.191 603.784 184.902 603.784 190.344 L 603.784 239.296 C 603.784 242.007 601.061 247.449 595.623 247.449 L 541.229 247.449 C 538.51 247.449 535.791 242.007 535.791 239.296 L 535.791 190.344 C 535.791 184.902 538.51 182.191 541.229 182.191 Z"/>
  <path style="fill: rgb(151, 197, 213); stroke: rgb(32, 35, 38); stroke-width: 0;" id="path53" d="M 622.82 182.191 L 677.21 182.191 C 682.644 182.191 685.363 184.902 685.363 190.344 L 685.363 239.296 C 685.363 242.007 682.644 247.449 677.21 247.449 L 622.82 247.449 C 620.101 247.449 617.378 242.007 617.378 239.296 L 617.378 190.344 C 617.378 184.902 620.101 182.191 622.82 182.191 Z"/>
  <path style="fill: rgb(151, 197, 213); stroke: rgb(32, 35, 38); stroke-width: 0;" id="path55" d="M 701.68 182.191 L 756.078 182.191 C 761.512 182.191 764.234 184.902 764.234 190.344 L 764.234 239.296 C 764.234 242.007 761.512 247.449 756.078 247.449 L 701.68 247.449 C 698.965 247.449 696.246 242.007 696.246 239.296 L 696.246 190.344 C 696.246 184.902 698.965 182.191 701.68 182.191 Z"/>
  <path style="fill: rgb(151, 197, 213); stroke: rgb(32, 35, 38); stroke-width: 0;" id="path57" d="M 783.267 182.191 L 837.657 182.191 C 843.099 182.191 845.817 184.902 845.817 190.344 L 845.817 239.296 C 845.817 242.007 843.099 247.449 837.657 247.449 L 783.267 247.449 C 780.548 247.449 777.825 242.007 777.825 239.296 L 777.825 190.344 C 777.825 184.902 780.548 182.191 783.267 182.191 Z"/>
  <path style="fill: rgb(151, 197, 213); stroke: rgb(32, 35, 38); stroke-width: 0;" id="path59" d="M 864.858 182.191 L 919.248 182.191 C 924.689 182.191 927.408 184.902 927.408 190.344 L 927.408 239.296 C 927.408 242.007 924.689 247.449 919.248 247.449 L 864.858 247.449 C 862.139 247.449 859.416 242.007 859.416 239.296 L 859.416 190.344 C 859.416 184.902 862.139 182.191 864.858 182.191 Z"/>
  <path style="fill: rgb(151, 197, 213); stroke: rgb(32, 35, 38); stroke-width: 0;" id="path61" d="M 946.444 182.191 L 998.115 182.191 C 1003.553 182.191 1006.276 184.902 1006.276 190.344 L 1006.276 239.296 C 1006.276 242.007 1003.553 247.449 998.115 247.449 L 946.444 247.449 C 943.722 247.449 941.003 242.007 941.003 239.296 L 941.003 190.344 C 941.003 184.902 943.722 182.191 946.444 182.191 Z"/>
  <path style="fill: rgb(151, 197, 213); stroke: rgb(32, 35, 38); stroke-width: 0;" id="path63" d="M 1025.312 182.191 L 1079.702 182.191 C 1085.136 182.191 1087.855 184.902 1087.855 190.344 L 1087.855 239.296 C 1087.855 242.007 1085.136 247.449 1079.702 247.449 L 1025.312 247.449 C 1022.593 247.449 1019.871 242.007 1019.871 239.296 L 1019.871 190.344 C 1019.871 184.902 1022.593 182.191 1025.312 182.191 Z"/>
  <path style="fill: rgb(151, 197, 213); stroke: rgb(32, 35, 38); stroke-width: 0;" id="path65" d="M 160.496 252.887 L 212.167 252.887 C 214.886 252.887 220.327 255.609 220.327 258.328 L 220.327 309.992 C 220.327 312.71 214.886 315.433 212.167 315.433 L 160.496 315.433 C 155.054 315.433 152.335 312.71 152.335 309.992 L 152.335 258.328 C 152.335 255.609 155.054 252.887 160.496 252.887 Z"/>
  <path style="fill: rgb(151, 197, 213); stroke: rgb(32, 35, 38); stroke-width: 0;" id="path67" d="M 239.367 252.887 L 293.754 252.887 C 296.476 252.887 301.91 255.609 301.91 258.328 L 301.91 309.992 C 301.91 312.71 296.476 315.433 293.754 315.433 L 239.367 315.433 C 233.926 315.433 231.199 312.71 231.199 309.992 L 231.199 258.328 C 231.199 255.609 233.926 252.887 239.367 252.887 Z"/>
  <path style="fill: rgb(151, 197, 213); stroke: rgb(32, 35, 38); stroke-width: 0;" id="path69" d="M 320.943 252.887 L 375.333 252.887 C 380.774 252.887 383.497 255.609 383.497 258.328 L 383.497 309.992 C 383.497 312.71 380.774 315.433 375.333 315.433 L 320.943 315.433 C 315.513 315.433 312.79 312.71 312.79 309.992 L 312.79 258.328 C 312.79 255.609 315.513 252.887 320.943 252.887 Z"/>
  <path style="fill: rgb(151, 197, 213); stroke: rgb(32, 35, 38); stroke-width: 0;" id="path71" d="M 402.533 252.887 L 454.204 252.887 C 459.646 252.887 462.365 255.609 462.365 258.328 L 462.365 309.992 C 462.365 312.71 459.646 315.433 454.204 315.433 L 402.533 315.433 C 397.092 315.433 394.373 312.71 394.373 309.992 L 394.373 258.328 C 394.373 255.609 397.092 252.887 402.533 252.887 Z"/>
  <path style="fill: rgb(151, 197, 213); stroke: rgb(32, 35, 38); stroke-width: 0;" id="path73" d="M 481.398 252.887 L 535.791 252.887 C 541.229 252.887 543.956 255.609 543.956 258.328 L 543.956 309.992 C 543.956 312.71 541.229 315.433 535.791 315.433 L 481.398 315.433 C 475.96 315.433 473.237 312.71 473.237 309.992 L 473.237 258.328 C 473.237 255.609 475.96 252.887 481.398 252.887 Z"/>
  <path style="fill: rgb(151, 197, 213); stroke: rgb(32, 35, 38); stroke-width: 0;" id="path75" d="M 562.988 252.887 L 617.378 252.887 C 622.82 252.887 625.531 255.609 625.531 258.328 L 625.531 309.992 C 625.531 312.71 622.82 315.433 617.378 315.433 L 562.988 315.433 C 560.269 315.433 554.828 312.71 554.828 309.992 L 554.828 258.328 C 554.828 255.609 560.269 252.887 562.988 252.887 Z"/>
  <path style="fill: rgb(151, 197, 213); stroke: rgb(32, 35, 38); stroke-width: 0;" id="path77" d="M 644.571 252.887 L 696.246 252.887 C 701.68 252.887 704.403 255.609 704.403 258.328 L 704.403 309.992 C 704.403 312.71 701.68 315.433 696.246 315.433 L 644.571 315.433 C 641.86 315.433 636.414 312.71 636.414 309.992 L 636.414 258.328 C 636.414 255.609 641.86 252.887 644.571 252.887 Z"/>
  <path style="fill: rgb(151, 197, 213); stroke: rgb(32, 35, 38); stroke-width: 0;" id="path79" d="M 723.435 252.887 L 777.825 252.887 C 783.267 252.887 785.99 255.609 785.99 258.328 L 785.99 309.992 C 785.99 312.71 783.267 315.433 777.825 315.433 L 723.435 315.433 C 720.716 315.433 715.282 312.71 715.282 309.992 L 715.282 258.328 C 715.282 255.609 720.716 252.887 723.435 252.887 Z"/>
  <path style="fill: rgb(151, 197, 213); stroke: rgb(32, 35, 38); stroke-width: 0;" id="path81" d="M 805.026 252.887 L 859.416 252.887 C 864.858 252.887 867.576 255.609 867.576 258.328 L 867.576 309.992 C 867.576 312.71 864.858 315.433 859.416 315.433 L 805.026 315.433 C 802.307 315.433 796.865 312.71 796.865 309.992 L 796.865 258.328 C 796.865 255.609 802.307 252.887 805.026 252.887 Z"/>
  <path style="fill: rgb(151, 197, 213); stroke: rgb(32, 35, 38); stroke-width: 0;" id="path83" d="M 886.617 252.887 L 941.003 252.887 C 946.444 252.887 949.163 255.609 949.163 258.328 L 949.163 309.992 C 949.163 312.71 946.444 315.433 941.003 315.433 L 886.617 315.433 C 883.894 315.433 878.452 312.71 878.452 309.992 L 878.452 258.328 C 878.452 255.609 883.894 252.887 886.617 252.887 Z"/>
  <path style="fill: rgb(151, 197, 213); stroke: rgb(32, 35, 38); stroke-width: 0;" id="path85" d="M 965.481 252.887 L 1019.871 252.887 C 1025.312 252.887 1028.024 255.609 1028.024 258.328 L 1028.024 309.992 C 1028.024 312.71 1025.312 315.433 1019.871 315.433 L 965.481 315.433 C 962.762 315.433 957.32 312.71 957.32 309.992 L 957.32 258.328 C 957.32 255.609 962.762 252.887 965.481 252.887 Z"/>
  <path style="fill: rgb(151, 197, 213); stroke: rgb(32, 35, 38); stroke-width: 0;" id="path87" d="M 187.689 320.863 L 244.798 320.863 C 247.52 320.863 250.239 326.305 250.239 329.024 L 250.239 375.246 C 250.239 380.687 247.52 383.41 244.798 383.41 L 187.689 383.41 C 184.966 383.41 182.255 380.687 182.255 375.246 L 182.255 329.024 C 182.255 326.305 184.966 320.863 187.689 320.863 Z"/>
  <path style="fill: rgb(151, 197, 213); stroke: rgb(32, 35, 38); stroke-width: 0;" id="path89" d="M 269.276 320.863 L 326.388 320.863 C 329.107 320.863 331.83 326.305 331.83 329.024 L 331.83 375.246 C 331.83 380.687 329.107 383.41 326.388 383.41 L 269.276 383.41 C 266.557 383.41 263.834 380.687 263.834 375.246 L 263.834 329.024 C 263.834 326.305 266.557 320.863 269.276 320.863 Z"/>
  <path style="fill: rgb(151, 197, 213); stroke: rgb(32, 35, 38); stroke-width: 0;" id="path91" d="M 350.862 320.863 L 407.975 320.863 C 410.694 320.863 413.405 326.305 413.405 329.024 L 413.405 375.246 C 413.405 380.687 410.694 383.41 407.975 383.41 L 350.862 383.41 C 348.144 383.41 345.425 380.687 345.425 375.246 L 345.425 329.024 C 345.425 326.305 348.144 320.863 350.862 320.863 Z"/>
  <path style="fill: rgb(151, 197, 213); stroke: rgb(32, 35, 38); stroke-width: 0;" id="path93" d="M 514.036 320.863 L 568.422 320.863 C 571.141 320.863 573.864 326.305 573.864 329.024 L 573.864 375.246 C 573.864 380.687 571.141 383.41 568.422 383.41 L 514.036 383.41 C 508.591 383.41 505.879 380.687 505.879 375.246 L 505.879 329.024 C 505.879 326.305 508.591 320.863 514.036 320.863 Z"/>
  <path style="fill: rgb(151, 197, 213); stroke: rgb(32, 35, 38); stroke-width: 0;" id="path95" d="M 595.623 320.863 L 650.013 320.863 C 652.732 320.863 655.451 326.305 655.451 329.024 L 655.451 375.246 C 655.451 380.687 652.732 383.41 650.013 383.41 L 595.623 383.41 C 590.181 383.41 587.459 380.687 587.459 375.246 L 587.459 329.024 C 587.459 326.305 590.181 320.863 595.623 320.863 Z"/>
  <path style="fill: rgb(151, 197, 213); stroke: rgb(32, 35, 38); stroke-width: 0;" id="path97" d="M 677.21 320.863 L 728.877 320.863 C 731.6 320.863 734.322 326.305 734.322 329.024 L 734.322 375.246 C 734.322 380.687 731.6 383.41 728.877 383.41 L 677.21 383.41 C 671.772 383.41 669.049 380.687 669.049 375.246 L 669.049 329.024 C 669.049 326.305 671.772 320.863 677.21 320.863 Z"/>
  <path style="fill: rgb(151, 197, 213); stroke: rgb(32, 35, 38); stroke-width: 0;" id="path99" d="M 756.078 320.863 L 810.468 320.863 C 813.187 320.863 815.902 326.305 815.902 329.024 L 815.902 375.246 C 815.902 380.687 813.187 383.41 810.468 383.41 L 756.078 383.41 C 750.636 383.41 747.917 380.687 747.917 375.246 L 747.917 329.024 C 747.917 326.305 750.636 320.863 756.078 320.863 Z"/>
  <path style="fill: rgb(151, 197, 213); stroke: rgb(32, 35, 38); stroke-width: 0;" id="path101" d="M 837.657 320.863 L 892.054 320.863 C 894.77 320.863 897.488 326.305 897.488 329.024 L 897.488 375.246 C 897.488 380.687 894.77 383.41 892.054 383.41 L 837.657 383.41 C 832.227 383.41 829.504 380.687 829.504 375.246 L 829.504 329.024 C 829.504 326.305 832.227 320.863 837.657 320.863 Z"/>
  <path style="fill: rgb(151, 197, 213); stroke: rgb(32, 35, 38); stroke-width: 0;" id="path103" d="M 919.248 320.863 L 970.915 320.863 C 973.634 320.863 976.356 326.305 976.356 329.024 L 976.356 375.246 C 976.356 380.687 973.634 383.41 970.915 383.41 L 919.248 383.41 C 913.802 383.41 911.087 380.687 911.087 375.246 L 911.087 329.024 C 911.087 326.305 913.802 320.863 919.248 320.863 Z"/>
  <path style="fill: rgb(151, 197, 213); stroke: rgb(32, 35, 38); stroke-width: 0;" id="path195" d="M 429.734 320.863 L 486.843 320.863 C 489.558 320.863 492.277 326.305 492.277 329.024 L 492.277 375.246 C 492.277 380.687 489.558 383.41 486.843 383.41 L 429.734 383.41 C 429.734 383.41 427.011 380.687 427.011 375.246 L 427.011 329.024 C 427.011 326.305 429.734 320.863 429.734 320.863 Z"/>
  <path style="fill: rgb(237, 192, 125); stroke: rgb(32, 35, 38); stroke-width: 0;" id="path107" d="M 168.649 2.719 L 223.039 2.719 C 228.48 2.719 231.199 5.442 231.199 10.872 L 231.199 59.824 C 231.199 62.543 228.48 67.977 223.039 67.977 L 168.649 67.977 C 165.93 67.977 163.207 62.543 163.207 59.824 L 163.207 10.872 C 163.207 5.442 165.93 2.719 168.649 2.719 Z"/>
  <path style="fill: rgb(237, 192, 125); stroke: rgb(32, 35, 38); stroke-width: 0;" id="path109" d="M 250.239 2.719 L 304.629 2.719 C 310.071 2.719 312.79 5.442 312.79 10.872 L 312.79 59.824 C 312.79 62.543 310.071 67.977 304.629 67.977 L 250.239 67.977 C 244.798 67.977 242.079 62.543 242.079 59.824 L 242.079 10.872 C 242.079 5.442 244.798 2.719 250.239 2.719 Z"/>
  <path style="fill: rgb(237, 192, 125); stroke: rgb(32, 35, 38); stroke-width: 0;" id="path111" d="M 331.83 2.719 L 386.216 2.719 C 391.662 2.719 394.373 5.442 394.373 10.872 L 394.373 59.824 C 394.373 62.543 391.662 67.977 386.216 67.977 L 331.83 67.977 C 329.107 67.977 323.666 62.543 323.666 59.824 L 323.666 10.872 C 323.666 5.442 329.107 2.719 331.83 2.719 Z"/>
  <path style="fill: rgb(237, 192, 125); stroke: rgb(32, 35, 38); stroke-width: 0;" id="path113" d="M 413.405 2.719 L 465.084 2.719 C 470.518 2.719 473.237 5.442 473.237 10.872 L 473.237 59.824 C 473.237 62.543 470.518 67.977 465.084 67.977 L 413.405 67.977 C 410.694 67.977 405.252 62.543 405.252 59.824 L 405.252 10.872 C 405.252 5.442 410.694 2.719 413.405 2.719 Z"/>
  <path style="fill: rgb(237, 192, 125); stroke: rgb(32, 35, 38); stroke-width: 0;" id="path115" d="M 533.069 0 L 587.459 0 C 590.181 0 592.9 5.442 592.9 8.161 L 592.9 57.105 C 592.9 62.543 590.181 65.266 587.459 65.266 L 533.069 65.266 C 527.631 65.266 524.916 62.543 524.916 57.105 L 524.916 8.161 C 524.916 5.442 527.631 0 533.069 0 Z"/>
  <path style="fill: rgb(237, 192, 125); stroke: rgb(32, 35, 38); stroke-width: 0;" id="path117" d="M 614.659 0 L 669.049 0 C 671.772 0 674.491 5.442 674.491 8.161 L 674.491 57.105 C 674.491 62.543 671.772 65.266 669.049 65.266 L 614.659 65.266 C 609.218 65.266 606.499 62.543 606.499 57.105 L 606.499 8.161 C 606.499 5.442 609.218 0 614.659 0 Z"/>
  <path style="fill: rgb(237, 192, 125); stroke: rgb(32, 35, 38); stroke-width: 0;" id="path119" d="M 693.523 0 L 747.917 0 C 750.636 0 753.355 5.442 753.355 8.161 L 753.355 57.105 C 753.355 62.543 750.636 65.266 747.917 65.266 L 693.523 65.266 C 690.804 65.266 688.085 62.543 688.085 57.105 L 688.085 8.161 C 688.085 5.442 690.804 0 693.523 0 Z"/>
  <path style="fill: rgb(237, 192, 125); stroke: rgb(32, 35, 38); stroke-width: 0;" id="path121" d="M 775.114 0 L 829.504 0 C 832.227 0 834.938 5.442 834.938 8.161 L 834.938 57.105 C 834.938 62.543 832.227 65.266 829.504 65.266 L 775.114 65.266 C 769.672 65.266 766.953 62.543 766.953 57.105 L 766.953 8.161 C 766.953 5.442 769.672 0 775.114 0 Z"/>
  <path style="fill: rgb(237, 192, 125); stroke: rgb(32, 35, 38); stroke-width: 0;" id="path123" d="M 894.77 0 L 949.163 0 C 951.878 0 954.601 5.442 954.601 8.161 L 954.601 57.105 C 954.601 62.543 951.878 65.266 949.163 65.266 L 894.77 65.266 C 889.336 65.266 886.617 62.543 886.617 57.105 L 886.617 8.161 C 886.617 5.442 889.336 0 894.77 0 Z"/>
  <path style="fill: rgb(237, 192, 125); stroke: rgb(32, 35, 38); stroke-width: 0;" id="path125" d="M 973.634 0 L 1028.024 0 C 1030.746 0 1033.465 5.442 1033.465 8.161 L 1033.465 57.105 C 1033.465 62.543 1030.746 65.266 1028.024 65.266 L 973.634 65.266 C 968.2 65.266 965.481 62.543 965.481 57.105 L 965.481 8.161 C 965.481 5.442 968.2 0 973.634 0 Z"/>
  <path style="fill: rgb(237, 192, 125); stroke: rgb(32, 35, 38); stroke-width: 0;" id="path127" d="M 1055.224 0 L 1109.614 0 C 1112.337 0 1115.056 5.442 1115.056 8.161 L 1115.056 57.105 C 1115.056 62.543 1112.337 65.266 1109.614 65.266 L 1055.224 65.266 C 1049.783 65.266 1047.064 62.543 1047.064 57.105 L 1047.064 8.161 C 1047.064 5.442 1049.783 0 1055.224 0 Z"/>
  <path style="fill: rgb(237, 192, 125); stroke: rgb(32, 35, 38); stroke-width: 0;" id="path129" d="M 1136.815 0 L 1191.201 0 C 1193.92 0 1196.647 5.442 1196.647 8.161 L 1196.647 57.105 C 1196.647 62.543 1193.92 65.266 1191.201 65.266 L 1136.815 65.266 C 1131.369 65.266 1128.651 62.543 1128.651 57.105 L 1128.651 8.161 C 1128.651 5.442 1131.369 0 1136.815 0 Z"/>
  <path style="fill: rgb(255, 255, 255); stroke: rgb(32, 35, 38); stroke-width: 0;" id="path131" d="M 1297.262 114.206 L 1351.656 114.206 C 1354.371 114.206 1357.094 116.925 1357.094 119.648 L 1357.094 168.588 C 1357.094 171.311 1354.371 174.03 1351.656 174.03 L 1297.262 174.03 C 1291.828 174.03 1289.105 171.311 1289.105 168.588 L 1289.105 119.648 C 1289.105 116.925 1291.828 114.206 1297.262 114.206 Z"/>
  <path style="fill: rgb(255, 255, 255); stroke: rgb(32, 35, 38); stroke-width: 0;" id="path133" d="M 1378.849 114.206 L 1433.239 114.206 C 1435.958 114.206 1438.68 116.925 1438.68 119.648 L 1438.68 168.588 C 1438.68 171.311 1435.958 174.03 1433.239 174.03 L 1378.849 174.03 C 1373.407 174.03 1370.692 171.311 1370.692 168.588 L 1370.692 119.648 C 1370.692 116.925 1373.407 114.206 1378.849 114.206 Z"/>
  <path style="fill: rgb(255, 255, 255); stroke: rgb(32, 35, 38); stroke-width: 0;" id="path135" d="M 1460.44 114.206 L 1512.107 114.206 C 1514.829 114.206 1517.548 116.925 1517.548 119.648 L 1517.548 168.588 C 1517.548 171.311 1514.829 174.03 1512.107 174.03 L 1460.44 174.03 C 1454.998 174.03 1452.275 171.311 1452.275 168.588 L 1452.275 119.648 C 1452.275 116.925 1454.998 114.206 1460.44 114.206 Z"/>
  <path style="fill: rgb(255, 255, 255); stroke: rgb(32, 35, 38); stroke-width: 0;" id="path143" d="M 1297.262 179.472 L 1351.656 179.472 C 1354.371 179.472 1357.094 184.902 1357.094 187.625 L 1357.094 236.573 C 1357.094 242.007 1354.371 244.726 1351.656 244.726 L 1297.262 244.726 C 1291.828 244.726 1289.105 242.007 1289.105 236.573 L 1289.105 187.625 C 1289.105 184.902 1291.828 179.472 1297.262 179.472 Z"/>
  <path style="fill: rgb(255, 255, 255); stroke: rgb(32, 35, 38); stroke-width: 0;" id="path145" d="M 1378.849 179.472 L 1433.239 179.472 C 1435.958 179.472 1438.68 184.902 1438.68 187.625 L 1438.68 236.573 C 1438.68 242.007 1435.958 244.726 1433.239 244.726 L 1378.849 244.726 C 1373.407 244.726 1370.692 242.007 1370.692 236.573 L 1370.692 187.625 C 1370.692 184.902 1373.407 179.472 1378.849 179.472 Z"/>
  <path style="fill: rgb(255, 255, 255); stroke: rgb(32, 35, 38); stroke-width: 0;" id="path147" d="M 1460.44 179.472 L 1512.107 179.472 C 1514.829 179.472 1517.548 184.902 1517.548 187.625 L 1517.548 236.573 C 1517.548 242.007 1514.829 244.726 1512.107 244.726 L 1460.44 244.726 C 1454.998 244.726 1452.275 242.007 1452.275 236.573 L 1452.275 187.625 C 1452.275 184.902 1454.998 179.472 1460.44 179.472 Z"/>
  <path style="fill: rgb(255, 255, 255); stroke: rgb(32, 35, 38); stroke-width: 0;" id="path137" d="M 1291.828 0 L 1346.214 0 C 1351.656 0 1354.371 5.442 1354.371 8.161 L 1354.371 57.105 C 1354.371 62.543 1351.656 65.266 1346.214 65.266 L 1291.828 65.266 C 1289.105 65.266 1283.664 62.543 1283.664 57.105 L 1283.664 8.161 C 1283.664 5.442 1289.105 0 1291.828 0 Z"/>
  <path style="fill: rgb(255, 255, 255); stroke: rgb(32, 35, 38); stroke-width: 0;" id="path139" d="M 1373.407 0 L 1427.805 0 C 1433.239 0 1435.958 5.442 1435.958 8.161 L 1435.958 57.105 C 1435.958 62.543 1433.239 65.266 1427.805 65.266 L 1373.407 65.266 C 1370.692 65.266 1365.254 62.543 1365.254 57.105 L 1365.254 8.161 C 1365.254 5.442 1370.692 0 1373.407 0 Z"/>
  <path style="fill: rgb(255, 255, 255); stroke: rgb(32, 35, 38); stroke-width: 0;" id="path141" d="M 1454.998 0 L 1506.665 0 C 1512.107 0 1514.829 5.442 1514.829 8.161 L 1514.829 57.105 C 1514.829 62.543 1512.107 65.266 1506.665 65.266 L 1454.998 65.266 C 1452.275 65.266 1446.845 62.543 1446.845 57.105 L 1446.845 8.161 C 1446.845 5.442 1452.275 0 1454.998 0 Z"/>
  <path style="fill: none; stroke: rgb(43, 40, 40); stroke-width: 0;" id="path407" d="M 1283.664 43.51 L 1354.371 43.51"/>
  <path style="fill: none; stroke: rgb(43, 40, 40); stroke-width: 0;" id="path417" d="M 1446.845 40.788 L 1514.829 40.788"/>
  <path style="stroke: rgb(32, 35, 38); stroke-width: 0; paint-order: fill; fill: rgb(170, 229, 183);" id="path149" d="M 1297.262 388.848 L 1351.656 388.848 C 1354.371 388.848 1357.094 391.571 1357.094 394.282 L 1357.094 445.953 C 1357.094 448.672 1354.371 451.383 1351.656 451.383 L 1297.262 451.383 C 1291.828 451.383 1289.105 448.672 1289.105 445.953 L 1289.105 394.282 C 1289.105 391.571 1291.828 388.848 1297.262 388.848 Z"/>
  <path style="stroke: rgb(32, 35, 38); stroke-width: 0; paint-order: fill; fill: rgb(170, 229, 183);" id="path151" d="M 1378.849 388.848 L 1433.239 388.848 C 1435.958 388.848 1438.68 391.571 1438.68 394.282 L 1438.68 445.953 C 1438.68 448.672 1435.958 451.383 1433.239 451.383 L 1378.849 451.383 C 1373.407 451.383 1370.692 448.672 1370.692 445.953 L 1370.692 394.282 C 1370.692 391.571 1373.407 388.848 1378.849 388.848 Z"/>
  <path style="stroke: rgb(32, 35, 38); stroke-width: 0; paint-order: fill; fill: rgb(170, 229, 183);" id="path153" d="M 1460.44 388.848 L 1512.107 388.848 C 1514.829 388.848 1517.548 391.571 1517.548 394.282 L 1517.548 445.953 C 1517.548 448.672 1514.829 451.383 1512.107 451.383 L 1460.44 451.383 C 1454.998 451.383 1452.275 448.672 1452.275 445.953 L 1452.275 394.282 C 1452.275 391.571 1454.998 388.848 1460.44 388.848 Z"/>
  <path style="stroke: rgb(32, 35, 38); stroke-width: 0; paint-order: fill; fill: rgb(170, 229, 183);" id="path155" d="M 1378.849 320.863 L 1433.239 320.863 C 1435.958 320.863 1438.68 323.586 1438.68 329.024 L 1438.68 375.246 C 1438.68 377.968 1435.958 383.41 1433.239 383.41 L 1378.849 383.41 C 1373.407 383.41 1370.692 377.968 1370.692 375.246 L 1370.692 329.024 C 1370.692 323.586 1373.407 320.863 1378.849 320.863 Z"/>
  <path style="stroke: rgb(43, 40, 40); stroke-width: 0; paint-order: fill; fill: rgb(170, 229, 183);" id="path305" d="M 1406.046 364.374 L 1406.046 337.177"/>
  <path style="stroke: rgb(43, 40, 40); stroke-width: 0; paint-order: fill; fill: rgb(170, 229, 183);" id="path309" d="M 1406.046 405.161 L 1406.046 435.07"/>
  <path style="stroke: rgb(43, 40, 40); stroke-width: 0; paint-order: fill; fill: rgb(170, 229, 183);" id="path313" d="M 1471.311 418.756 L 1498.512 418.756"/>
  <path style="stroke: rgb(43, 40, 40); stroke-width: 0; paint-order: fill; fill: rgb(170, 229, 183);" id="path317" d="M 1338.054 418.756 L 1308.142 418.756"/>
  <path style="fill: rgb(159, 170, 202); stroke: rgb(32, 35, 38); stroke-width: 0;" id="path157" d="M 1615.453 114.206 L 1669.843 114.206 C 1675.284 114.206 1677.999 116.925 1677.999 119.648 L 1677.999 168.588 C 1677.999 171.311 1675.284 174.03 1669.843 174.03 L 1615.453 174.03 C 1612.734 174.03 1607.292 171.311 1607.292 168.588 L 1607.292 119.648 C 1607.292 116.925 1612.734 114.206 1615.453 114.206 Z"/>
  <path style="fill: rgb(159, 170, 202); stroke: rgb(32, 35, 38); stroke-width: 0;" id="path159" d="M 1697.039 114.206 L 1748.71 114.206 C 1754.144 114.206 1756.867 116.925 1756.867 119.648 L 1756.867 168.588 C 1756.867 171.311 1754.144 174.03 1748.71 174.03 L 1697.039 174.03 C 1694.32 174.03 1688.879 171.311 1688.879 168.588 L 1688.879 119.648 C 1688.879 116.925 1694.32 114.206 1697.039 114.206 Z"/>
  <path style="fill: rgb(159, 170, 202); stroke: rgb(32, 35, 38); stroke-width: 0;" id="path161" d="M 1775.9 114.206 L 1830.297 114.206 C 1835.731 114.206 1838.45 116.925 1838.45 119.648 L 1838.45 168.588 C 1838.45 171.311 1835.731 174.03 1830.297 174.03 L 1775.9 174.03 C 1773.185 174.03 1767.747 171.311 1767.747 168.588 L 1767.747 119.648 C 1767.747 116.925 1773.185 114.206 1775.9 114.206 Z"/>
  <path style="fill: rgb(159, 170, 202); stroke: rgb(32, 35, 38); stroke-width: 0;" id="path163" d="M 1615.453 179.472 L 1669.843 179.472 C 1675.284 179.472 1677.999 184.902 1677.999 187.625 L 1677.999 236.573 C 1677.999 242.007 1675.284 244.726 1669.843 244.726 L 1615.453 244.726 C 1612.734 244.726 1607.292 242.007 1607.292 236.573 L 1607.292 187.625 C 1607.292 184.902 1612.734 179.472 1615.453 179.472 Z"/>
  <path style="fill: rgb(159, 170, 202); stroke: rgb(32, 35, 38); stroke-width: 0;" id="path165" d="M 1697.039 179.472 L 1748.71 179.472 C 1754.144 179.472 1756.867 184.902 1756.867 187.625 L 1756.867 236.573 C 1756.867 242.007 1754.144 244.726 1748.71 244.726 L 1697.039 244.726 C 1694.32 244.726 1688.879 242.007 1688.879 236.573 L 1688.879 187.625 C 1688.879 184.902 1694.32 179.472 1697.039 179.472 Z"/>
  <path style="fill: rgb(159, 170, 202); stroke: rgb(32, 35, 38); stroke-width: 0;" id="path167" d="M 1775.9 179.472 L 1830.297 179.472 C 1835.731 179.472 1838.45 184.902 1838.45 187.625 L 1838.45 236.573 C 1838.45 242.007 1835.731 244.726 1830.297 244.726 L 1775.9 244.726 C 1773.185 244.726 1767.747 242.007 1767.747 236.573 L 1767.747 187.625 C 1767.747 184.902 1773.185 179.472 1775.9 179.472 Z"/>
  <path style="fill: rgb(159, 170, 202); stroke: rgb(32, 35, 38); stroke-width: 0;" id="path169" d="M 1615.453 250.168 L 1669.843 250.168 C 1675.284 250.168 1677.999 252.887 1677.999 258.328 L 1677.999 307.273 C 1677.999 312.71 1675.284 315.433 1669.843 315.433 L 1615.453 315.433 C 1612.734 315.433 1607.292 312.71 1607.292 307.273 L 1607.292 258.328 C 1607.292 252.887 1612.734 250.168 1615.453 250.168 Z"/>
  <path style="fill: rgb(159, 170, 202); stroke: rgb(32, 35, 38); stroke-width: 0;" id="path171" d="M 1697.039 250.168 L 1748.71 250.168 C 1754.144 250.168 1756.867 252.887 1756.867 258.328 L 1756.867 307.273 C 1756.867 312.71 1754.144 315.433 1748.71 315.433 L 1697.039 315.433 C 1694.32 315.433 1688.879 312.71 1688.879 307.273 L 1688.879 258.328 C 1688.879 252.887 1694.32 250.168 1697.039 250.168 Z"/>
  <path style="fill: rgb(159, 170, 202); stroke: rgb(32, 35, 38); stroke-width: 0;" id="path173" d="M 1775.9 250.168 L 1830.297 250.168 C 1835.731 250.168 1838.45 252.887 1838.45 258.328 L 1838.45 307.273 C 1838.45 312.71 1835.731 315.433 1830.297 315.433 L 1775.9 315.433 C 1773.185 315.433 1767.747 312.71 1767.747 307.273 L 1767.747 258.328 C 1767.747 252.887 1773.185 250.168 1775.9 250.168 Z"/>
  <path style="fill: rgb(159, 170, 202); stroke: rgb(32, 35, 38); stroke-width: 0;" id="path175" d="M 1615.453 320.863 L 1669.843 320.863 C 1675.284 320.863 1677.999 323.586 1677.999 329.024 L 1677.999 375.246 C 1677.999 377.968 1675.284 383.41 1669.843 383.41 L 1615.453 383.41 C 1612.734 383.41 1607.292 377.968 1607.292 375.246 L 1607.292 329.024 C 1607.292 323.586 1612.734 320.863 1615.453 320.863 Z"/>
  <path style="fill: rgb(159, 170, 202); stroke: rgb(32, 35, 38); stroke-width: 0;" id="path177" d="M 1697.039 320.863 L 1748.71 320.863 C 1754.144 320.863 1756.867 323.586 1756.867 329.024 L 1756.867 375.246 C 1756.867 377.968 1754.144 383.41 1748.71 383.41 L 1697.039 383.41 C 1694.32 383.41 1688.879 377.968 1688.879 375.246 L 1688.879 329.024 C 1688.879 323.586 1694.32 320.863 1697.039 320.863 Z"/>
  <path style="fill: rgb(159, 170, 202); stroke: rgb(32, 35, 38); stroke-width: 0;" id="path179" d="M 1775.9 320.863 L 1830.297 320.863 C 1835.731 320.863 1838.45 323.586 1838.45 329.024 L 1838.45 375.246 C 1838.45 377.968 1835.731 383.41 1830.297 383.41 L 1775.9 383.41 C 1773.185 383.41 1767.747 377.968 1767.747 375.246 L 1767.747 329.024 C 1767.747 323.586 1773.185 320.863 1775.9 320.863 Z"/>
  <path style="fill: rgb(159, 170, 202); stroke: rgb(32, 35, 38); stroke-width: 0;" id="path181" d="M 1775.9 388.848 L 1830.297 388.848 C 1835.731 388.848 1838.45 391.571 1838.45 394.282 L 1838.45 445.953 C 1838.45 448.672 1835.731 451.383 1830.297 451.383 L 1775.9 451.383 C 1773.185 451.383 1767.747 448.672 1767.747 445.953 L 1767.747 394.282 C 1767.747 391.571 1773.185 388.848 1775.9 388.848 Z"/>
  <path style="fill: rgb(159, 170, 202); stroke: rgb(32, 35, 38); stroke-width: 0;" id="path183" d="M 1857.49 114.206 L 1911.88 114.206 C 1917.322 114.206 1920.041 116.925 1920.041 119.648 L 1920.041 168.588 C 1920.041 171.311 1917.322 174.03 1911.88 174.03 L 1857.49 174.03 C 1854.768 174.03 1849.337 171.311 1849.337 168.588 L 1849.337 119.648 C 1849.337 116.925 1854.768 114.206 1857.49 114.206 Z"/>
  <path style="fill: rgb(159, 170, 202); stroke: rgb(32, 35, 38); stroke-width: 0;" id="path191" d="M 1920.041 187.625 C 1920.041 184.902 1917.322 179.472 1911.88 179.472 L 1857.49 179.472 C 1854.768 179.472 1849.337 184.902 1849.337 187.625 L 1849.337 307.273 C 1849.337 312.71 1854.768 315.433 1857.49 315.433 L 1911.88 315.433 C 1917.322 315.433 1920.041 312.71 1920.041 307.273 L 1920.041 187.625 Z"/>
  <path style="fill: rgb(241, 239, 190); stroke: rgb(32, 35, 38); stroke-width: 0;" id="path193" d="M 1920.041 329.024 C 1920.041 323.586 1917.322 320.863 1911.88 320.863 L 1857.49 320.863 C 1854.768 320.863 1849.337 323.586 1849.337 329.024 L 1849.337 445.953 C 1849.337 448.672 1854.768 451.383 1857.49 451.383 L 1911.88 451.383 C 1917.322 451.383 1920.041 448.672 1920.041 445.953 L 1920.041 329.024 Z"/>
  <path style="fill: rgb(159, 170, 202); stroke: rgb(32, 35, 38); stroke-width: 0;" id="path373" d="M 1615.453 451.383 C 1612.734 451.383 1607.292 448.672 1607.292 445.953 L 1607.292 394.282 C 1607.292 391.571 1612.734 388.848 1615.453 388.848 L 1748.71 388.848 C 1754.144 388.848 1756.867 391.571 1756.867 394.282 L 1756.867 445.953 C 1756.867 448.672 1754.144 451.383 1748.71 451.383 L 1615.453 451.383 Z"/>
  <path style="fill: none; stroke: rgb(43, 40, 40); stroke-width: 0;" id="path737" d="M 1724.229 225.693 L 1724.229 198.504"/>
  <path id="path1537" style="font-weight: normal; font-size: 9px; font-family: Arial; fill: rgb(43, 40, 40);" d="M 1778.284 408.975 L 1778.284 407.082 L 1780.182 407.082 L 1780.182 408.975 L 1778.284 408.975 Z"/>
  <path style="fill: rgb(0, 255, 8);" id="path829" d="M 1626.324 46.229 L 1645.365 46.229 L 1645.365 38.069 L 1626.324 38.069 L 1626.324 46.229 Z"/>
  <path style="stroke: rgb(43, 40, 40); stroke-width: 0; fill: rgb(0, 255, 8);" id="path831" d="M 1626.324 46.229 L 1645.365 46.229 L 1645.365 38.069 L 1626.324 38.069 L 1626.324 46.229 Z"/>
  <path style="fill: rgb(0, 255, 8);" id="path841" d="M 1737.827 46.229 L 1756.867 46.229 L 1756.867 38.069 L 1737.827 38.069 L 1737.827 46.229 Z"/>
  <path style="stroke: rgb(43, 40, 40); stroke-width: 0; fill: rgb(0, 255, 8);" id="path843" d="M 1737.827 46.229 L 1756.867 46.229 L 1756.867 38.069 L 1737.827 38.069 L 1737.827 46.229 Z"/>
  <path style="fill: rgb(0, 255, 8);" id="path853" d="M 1849.337 46.229 L 1868.37 46.229 L 1868.37 38.069 L 1849.337 38.069 L 1849.337 46.229 Z"/>
  <path style="stroke: rgb(43, 40, 40); stroke-width: 0; fill: rgb(0, 255, 8);" id="path855" d="M 1849.337 46.229 L 1868.37 46.229 L 1868.37 38.069 L 1849.337 38.069 L 1849.337 46.229 Z"/>
  <path style="fill: rgb(151, 197, 213); stroke: rgb(32, 35, 38); stroke-width: 0;" id="path39" d="M 1139.534 114.206 L 1193.92 114.206 C 1199.358 114.206 1202.077 116.925 1202.077 122.367 L 1202.077 168.588 C 1202.077 174.03 1199.358 176.749 1193.92 176.749 L 1139.534 176.749 C 1136.815 176.749 1134.092 174.03 1134.092 168.588 L 1134.092 122.367 C 1134.092 116.925 1136.815 114.206 1139.534 114.206 Z"/>
  <path style="fill: rgb(255, 255, 255); stroke: rgb(32, 35, 38); stroke-width: 0;" id="path105" d="M 8.202 2.719 L 62.592 2.719 C 65.314 2.719 70.744 5.442 70.744 10.872 L 70.744 59.824 C 70.744 62.543 65.314 67.977 62.592 67.977 L 8.202 67.977 C 2.76 67.977 0.041 62.543 0.041 59.824 L 0.041 10.872 C 0.041 5.442 2.76 2.719 8.202 2.719 Z"/>
  <path style="fill: rgb(151, 197, 213); stroke: rgb(32, 35, 38); stroke-width: 0;" id="path185" d="M 320.943 388.848 L 291.031 388.848 C 285.593 388.848 282.87 391.571 282.87 397.001 L 282.87 445.953 C 282.87 451.383 285.593 454.106 291.031 454.106 L 320.943 454.106 L 777.825 454.106 L 826.785 454.106 C 826.785 454.106 829.504 451.383 829.504 445.953 L 829.504 397.001 C 829.504 391.571 826.785 388.848 826.785 388.848 L 777.825 388.848 L 320.943 388.848 Z"/>
  <path style="fill: rgb(232, 168, 165); stroke: rgb(32, 35, 38); stroke-width: 0;" id="path187" d="M 943.722 388.848 L 995.393 388.848 C 998.115 388.848 1000.834 391.571 1000.834 397.001 L 1000.834 445.953 C 1000.834 451.383 998.115 454.106 995.393 454.106 L 943.722 454.106 C 938.284 454.106 935.561 451.383 935.561 445.953 L 935.561 397.001 C 935.561 391.571 938.284 388.848 943.722 388.848 Z"/>
  <path style="fill: rgb(169, 124, 169); stroke: rgb(32, 35, 38); stroke-width: 0;" id="path189" d="M 1022.593 388.848 L 1076.983 388.848 C 1079.702 388.848 1082.425 391.571 1082.425 397.001 L 1082.425 445.953 C 1082.425 451.383 1079.702 454.106 1076.983 454.106 L 1022.593 454.106 C 1017.152 454.106 1014.433 451.383 1014.433 445.953 L 1014.433 397.001 C 1014.433 391.571 1017.152 388.848 1022.593 388.848 Z"/>
  <path style="fill: rgb(151, 197, 213); stroke: rgb(32, 35, 38); stroke-width: 0;" id="path197" d="M 8.202 247.449 C 2.76 247.449 0.041 242.007 0.041 239.296 L 0.041 190.344 C 0.041 184.902 2.76 182.191 8.202 182.191 L 111.544 182.191 C 116.981 182.191 119.704 184.902 119.704 190.344 L 119.704 239.296 C 119.704 242.007 116.981 247.449 111.544 247.449 L 8.202 247.449 Z"/>
  <path style="fill: rgb(151, 197, 213); stroke: rgb(32, 35, 38); stroke-width: 0;" id="path199" d="M 8.202 315.433 C 5.483 315.433 0.041 312.71 0.041 309.992 L 0.041 258.328 C 0.041 255.609 5.483 252.887 8.202 252.887 L 130.576 252.887 C 136.018 252.887 141.463 255.609 141.463 258.328 L 141.463 309.992 C 141.463 312.71 136.018 315.433 130.576 315.433 L 8.202 315.433 Z"/>
  <path style="fill: rgb(151, 197, 213); stroke: rgb(32, 35, 38); stroke-width: 0;" id="path551" d="M 995.393 383.41 C 992.674 383.41 989.951 380.687 989.951 375.246 L 989.951 329.024 C 989.951 326.305 992.674 320.863 995.393 320.863 L 1193.92 320.863 C 1199.358 320.863 1202.077 326.305 1202.077 329.024 L 1202.077 375.246 C 1202.077 380.687 1199.358 383.41 1193.92 383.41 L 995.393 383.41 Z"/>
  <path style="fill: rgb(241, 239, 190); stroke: rgb(32, 35, 38); stroke-width: 0px;" id="path553" d="M 1093.297 252.887 L 1047.064 252.887 C 1041.63 252.887 1038.907 255.609 1038.907 258.328 L 1038.907 309.992 C 1038.907 312.71 1041.63 315.433 1047.064 315.433 L 1193.92 315.433 C 1199.358 315.433 1202.077 312.71 1202.077 309.992 L 1202.077 190.344 C 1202.077 184.902 1199.358 182.191 1193.92 182.191 L 1109.614 182.191 C 1104.176 182.191 1101.457 184.902 1101.457 190.344 L 1101.457 244.726 C 1101.457 250.168 1101.457 252.887 1093.297 252.887 Z"/>
  <path style="fill: rgb(151, 197, 213); stroke: rgb(32, 35, 38); stroke-width: 0;" id="path559" d="M 1104.176 388.848 L 1193.92 388.848 C 1199.358 388.848 1202.077 391.571 1202.077 397.001 L 1202.077 445.953 C 1202.077 451.383 1199.358 454.106 1193.92 454.106 L 1104.176 454.106 C 1098.739 454.106 1096.016 451.383 1096.016 445.953 L 1096.016 397.001 C 1096.016 391.571 1098.739 388.848 1104.176 388.848 Z"/>
  <path style="fill: rgb(151, 197, 213); stroke: rgb(32, 35, 38); stroke-width: 0;" id="path561" d="M 8.202 383.41 C 5.483 383.41 0.041 380.687 0.041 375.246 C 0.041 361.655 0.041 345.341 0.041 329.024 C 0.041 326.305 5.483 320.863 8.202 320.863 C 48.989 320.863 119.704 320.863 163.207 320.863 C 165.93 320.863 168.649 326.305 168.649 329.024 C 168.649 345.341 168.649 361.655 168.649 375.246 C 168.649 380.687 165.93 383.41 163.207 383.41 C 119.704 383.41 48.989 383.41 8.202 383.41 Z"/>
  <path style="fill: rgb(151, 197, 213); stroke: rgb(32, 35, 38); stroke-width: 0;" id="path563" d="M 8.202 388.848 L 89.785 388.848 C 92.504 388.848 95.226 391.571 95.226 397.001 L 95.226 445.953 C 95.226 451.383 92.504 454.106 89.785 454.106 L 8.202 454.106 C 2.76 454.106 0.041 451.383 0.041 445.953 L 0.041 397.001 C 0.041 391.571 2.76 388.848 8.202 388.848 Z"/>
  <path style="fill: rgb(232, 168, 165); stroke: rgb(32, 35, 38); stroke-width: 0;" id="path565" d="M 116.981 388.848 L 168.649 388.848 C 174.094 388.848 176.813 391.571 176.813 397.001 L 176.813 445.953 C 176.813 448.672 174.094 454.106 168.649 454.106 L 116.981 454.106 C 114.263 454.106 108.821 448.672 108.821 445.953 L 108.821 397.001 C 108.821 391.571 114.263 388.848 116.981 388.848 Z"/>
  <path style="fill: rgb(151, 197, 213); stroke: rgb(32, 35, 38); stroke-width: 0;" id="path567" d="M 195.849 388.848 L 263.834 388.848 C 266.557 388.848 269.276 391.571 269.276 397.001 L 269.276 445.953 C 269.276 448.672 266.557 454.106 263.834 454.106 L 195.849 454.106 C 193.127 454.106 190.408 448.672 190.408 445.953 L 190.408 397.001 C 190.408 391.571 193.127 388.848 195.849 388.848 Z"/>
  <path style="fill: rgb(151, 197, 213); stroke: rgb(32, 35, 38); stroke-width: 0;" id="path865" d="M 848.54 388.848 L 913.802 388.848 C 916.525 388.848 919.248 391.571 919.248 397.001 L 919.248 445.953 C 919.248 448.672 916.525 454.106 913.802 454.106 L 848.54 454.106 C 845.817 454.106 843.099 448.672 843.099 445.953 L 843.099 397.001 C 843.099 391.571 845.817 388.848 848.54 388.848 Z"/>
</svg>